{"title":"Dungeons And Dragons Tv Series Vol 3(hugg2bear)ICM369","uid":6312600,"size":1465839698,"categoryP":"video","categoryS":"tv_shows","magnet":"?xt=urn:btih:ee4d24a8ff5b05b5f2b5e8d9c87d13cdb7a504fe&amp;dn=Dungeons+And+Dragons+Tv+Series+Vol+3%28hugg2bear%29ICM369&amp;tr=udp%3A%2F%2Ftracker.openbittorrent.com%3A80&amp;tr=udp%3A%2F%2Fopen.demonii.com%3A1337&amp;tr=udp%3A%2F%2Ftracker.coppersurfer.tk%3A6969&amp;tr=udp%3A%2F%2Fexodus.desync.com%3A6969","seeders":1,"leechers":0,"uploader":"ICM369","files":-1,"time":1302591291,"description":"[img]http://leetleech.org/images/71536477186118561206.jpg[/img]\n\n15 &quot;The Treasure of Tardos&quot; Michael Reaves September 15, 1984 (1984-09-15)\n\nThe children encounter a creature called Demodragon, a deadly creature that can destroy the realm. The children must go to Tardos Keep to find a way to combat it. The cities treasure, Dragon Bane, must be used to control the Demodragon.\nThe show ends on a cliffhanger, as Dungeon Master is shown to have compassion for Venger by stating there was once good in him and that he was Dungeon Master's mistake. This may alude to the fact that Venger is revealed to be Dungeon Master's son in the unproduced &quot;Requiem&quot; episode. \n__________\n\n16 &quot;City at the Edge of Midnight&quot; Michael Reaves &amp; Karl Geurs September 22, 1984 (1984-09-22)\n\nA young child named Jimmy gets pulled into the Realm from under his bed and taken to the City at the Edge of Midnight. Bobby also gets kidnapped and taken there. The children must go to the city to get back Bobby and those taken hostage in the city. \n__________\n\n17 &quot;The Traitor&quot; Jeffrey Scott September 29, 1984 (1984-09-29)\n\nThe children befriend a pack of teddy bear-like creatures. After Bobby and Hank are taken hostage, Hank is seen planning an attack on the teddy bear civilization with the enemy. The rest of the children suspect he has betrayed them. \n__________\n\n18 &quot;Day of the Dungeon Master&quot; Michael Reaves October 6, 1984 (1984-10-06)\n\nEric is granted the powers of Dungeon Master as the Dungeon Master takes a day off, and the children seek out a book of magic called the Golden Grimoire in a city called Dark Haven to find a way home. \n__________\n\n19 &quot;The Last Illusion&quot; \tJeffrey Scott \tOctober 13, 1984 (1984-10-13)\n\nPresto meets a young girl named Varla in a swamp. The young girl must use her powers of illusion to not only terrorize the nearby village, but also to help the children. The children must rescue Varla to end the villages torment. \n__________\n\n20 &quot;The Dragon's Graveyard&quot; Michael Reaves October 20, 1984 (1984-10-20)\n\nAfter Venger thwarts another close encounter with getting home the children contemplate killing him. They formulate a plan to get Tiamat's help and seek her out in the Dragon's graveyard. \n__________\n\n21 &quot;Child of the Stargazer&quot; Michael Reaves October 27, 1984 (1984-10-27)\n\nA young man who is thought to be the center of an extraordinary prophecy crosses the children's path. The prophecy involves overthrowing a powerful demonic sorceress, and the children attempt to help the young man fulfill the prophecy. \n__________\n\nFormat                           : AVI\nFormat/Info                      : Audio Video Interleave\nFile size                        : 199 MiB\nDuration                         : 20mn 47s\nOverall bit rate                 : 1 339 Kbps\n\nVideo\nID                               : 0\nFormat                           : MPEG-4 Visual\nFormat profile                   : Advanced Simple@L4\nFormat settings, BVOP            : No\nFormat settings, QPel            : No\nFormat settings, GMC             : No warppoints\nFormat settings, Matrix          : Default (H.263)\nCodec ID                         : XVID\nCodec ID/Hint                    : XviD\nDuration                         : 20mn 47s\nBit rate                         : 1 199 Kbps\nWidth                            : 640 pixels\nHeight                           : 480 pixels\nDisplay aspect ratio             : 4:3\nFrame rate                       : 25.000 fps\nColor space                      : YUV\nChroma subsampling               : 4:2:0\nBit depth                        : 8 bits\nScan type                        : Progressive\nCompression mode                 : Lossy\nBits/(Pixel*Frame)               : 0.156\nStream size                      : 178 MiB (90%)\nWriting library                  : Magic0432\n\nAudio\nID                               : 1\nFormat                           : MPEG Audio\nFormat version                   : Version 1\nFormat profile                   : Layer 3\nMode                             : Joint stereo\nMode extension                   : MS Stereo\nCodec ID                         : 55\nCodec ID/Hint                    : MP3\nDuration                         : 20mn 47s\nBit rate mode                    : Constant\nBit rate                         : 128 Kbps\nChannel(s)                       : 2 channels\nSampling rate                    : 44.1 KHz\nCompression mode                 : Lossy\nStream size                      : 19.0 MiB (10%)\nAlignment                        : Aligned on interleaves\nInterleave, duration             : 26 ms (0.65 video frame)\n\n[img]http://leetleech.org/images/56668859157668956687.jpg[/img]\n\n[img]http://leetleech.org/images/94590675510651939552.jpg[/img]\n\n[img]http://leetleech.org/images/75165681989530628306.jpg[/img","torrent":{"xt":"urn:btih:ee4d24a8ff5b05b5f2b5e8d9c87d13cdb7a504fe","amp;dn":"Dungeons+And+Dragons+Tv+Series+Vol+3%28hugg2bear%29ICM369","amp;tr":["udp%3A%2F%2Ftracker.openbittorrent.com%3A80","udp%3A%2F%2Fopen.demonii.com%3A1337","udp%3A%2F%2Ftracker.coppersurfer.tk%3A6969","udp%3A%2F%2Fexodus.desync.com%3A6969"],"infoHash":"ee4d24a8ff5b05b5f2b5e8d9c87d13cdb7a504fe","infoHashBuffer":{"type":"Buffer","data":[238,77,36,168,255,91,5,181,242,181,232,217,200,125,19,205,183,165,4,254]},"announce":[],"urlList":[]}}